M48
; DRILL file {KiCad 9.0.1} date 2025-04-16T23:21:27+0300
; FORMAT={-:-/ absolute / metric / decimal}
; #@! TF.CreationDate,2025-04-16T23:21:27+03:00
; #@! TF.GenerationSoftware,Kicad,Pcbnew,9.0.1
; #@! TF.FileFunction,NonPlated,1,2,NPTH
FMAT,2
METRIC
; #@! TA.AperFunction,NonPlated,NPTH,ComponentDrill
T1C1.900
; #@! TA.AperFunction,NonPlated,NPTH,ComponentDrill
T2C3.000
; #@! TA.AperFunction,NonPlated,NPTH,ComponentDrill
T3C3.400
%
G90
G05
T1
X26.5Y-80.75
X26.5Y-97.75
X26.5Y-114.75
X37.5Y-80.75
X37.5Y-97.75
X37.5Y-114.75
X43.5Y-78.54
X43.5Y-95.54
X43.5Y-112.54
X54.5Y-78.54
X54.5Y-95.54
X54.5Y-112.54
X60.5Y-72.25
X60.5Y-89.25
X60.5Y-106.25
X71.5Y-72.25
X71.5Y-89.25
X71.5Y-106.25
X77.5Y-68.0
X77.5Y-85.0
X77.5Y-102.0
X88.5Y-68.0
X88.5Y-85.0
X88.5Y-102.0
X94.5Y-72.25
X94.5Y-89.25
X94.5Y-106.25
X94.5Y-123.25
X105.5Y-72.25
X105.5Y-89.25
X105.5Y-106.25
X105.5Y-123.25
X111.5Y-74.29
X111.5Y-91.29
X111.5Y-108.29
X111.5Y-125.29
X122.5Y-74.29
X122.5Y-91.29
X122.5Y-108.29
X122.5Y-125.29
X128.5Y-127.5
X139.5Y-127.5
X157.75Y-127.5
X168.75Y-127.5
X174.75Y-74.29
X174.75Y-91.29
X174.75Y-108.29
X174.75Y-125.29
X185.75Y-74.29
X185.75Y-91.29
X185.75Y-108.29
X185.75Y-125.29
X191.75Y-72.25
X191.75Y-89.25
X191.75Y-106.25
X191.75Y-123.25
X202.75Y-72.25
X202.75Y-89.25
X202.75Y-106.25
X202.75Y-123.25
X208.75Y-68.0
X208.75Y-85.0
X208.75Y-102.0
X219.75Y-68.0
X219.75Y-85.0
X219.75Y-102.0
X225.75Y-72.25
X225.75Y-89.25
X225.75Y-106.25
X236.75Y-72.25
X236.75Y-89.25
X236.75Y-106.25
X242.75Y-78.54
X242.75Y-95.54
X242.75Y-112.54
X253.75Y-78.54
X253.75Y-95.54
X253.75Y-112.54
X259.75Y-80.75
X259.75Y-97.75
X259.75Y-114.75
X270.75Y-80.75
X270.75Y-97.75
X270.75Y-114.75
T2
X27.0Y-84.45
X27.0Y-101.45
X27.0Y-118.45
X32.0Y-86.65
X32.0Y-103.65
X32.0Y-120.65
X44.0Y-82.24
X44.0Y-99.24
X44.0Y-116.24
X49.0Y-84.44
X49.0Y-101.44
X49.0Y-118.44
X61.0Y-75.95
X61.0Y-92.95
X61.0Y-109.95
X66.0Y-78.15
X66.0Y-95.15
X66.0Y-112.15
X78.0Y-71.7
X78.0Y-88.7
X78.0Y-105.7
X83.0Y-73.9
X83.0Y-90.9
X83.0Y-107.9
X95.0Y-75.95
X95.0Y-92.95
X95.0Y-109.95
X95.0Y-126.95
X100.0Y-78.15
X100.0Y-95.15
X100.0Y-112.15
X100.0Y-129.15
X112.0Y-77.99
X112.0Y-94.99
X112.0Y-111.99
X112.0Y-128.99
X117.0Y-80.19
X117.0Y-97.19
X117.0Y-114.19
X117.0Y-131.19
X129.0Y-131.2
X134.0Y-133.4
X158.25Y-131.2
X163.25Y-133.4
X175.25Y-77.99
X175.25Y-94.99
X175.25Y-111.99
X175.25Y-128.99
X180.25Y-80.19
X180.25Y-97.19
X180.25Y-114.19
X180.25Y-131.19
X192.25Y-75.95
X192.25Y-92.95
X192.25Y-109.95
X192.25Y-126.95
X197.25Y-78.15
X197.25Y-95.15
X197.25Y-112.15
X197.25Y-129.15
X209.25Y-71.7
X209.25Y-88.7
X209.25Y-105.7
X214.25Y-73.9
X214.25Y-90.9
X214.25Y-107.9
X226.25Y-75.95
X226.25Y-92.95
X226.25Y-109.95
X231.25Y-78.15
X231.25Y-95.15
X231.25Y-112.15
X243.25Y-82.24
X243.25Y-99.24
X243.25Y-116.24
X248.25Y-84.44
X248.25Y-101.44
X248.25Y-118.44
X260.25Y-84.45
X260.25Y-101.45
X260.25Y-118.45
X265.25Y-86.65
X265.25Y-103.65
X265.25Y-120.65
T3
X32.0Y-80.75
X32.0Y-97.75
X32.0Y-114.75
X49.0Y-78.54
X49.0Y-95.54
X49.0Y-112.54
X66.0Y-72.25
X66.0Y-89.25
X66.0Y-106.25
X83.0Y-68.0
X83.0Y-85.0
X83.0Y-102.0
X100.0Y-72.25
X100.0Y-89.25
X100.0Y-106.25
X100.0Y-123.25
X117.0Y-74.29
X117.0Y-91.29
X117.0Y-108.29
X117.0Y-125.29
X134.0Y-127.5
X163.25Y-127.5
X180.25Y-74.29
X180.25Y-91.29
X180.25Y-108.29
X180.25Y-125.29
X197.25Y-72.25
X197.25Y-89.25
X197.25Y-106.25
X197.25Y-123.25
X214.25Y-68.0
X214.25Y-85.0
X214.25Y-102.0
X231.25Y-72.25
X231.25Y-89.25
X231.25Y-106.25
X248.25Y-78.54
X248.25Y-95.54
X248.25Y-112.54
X265.25Y-80.75
X265.25Y-97.75
X265.25Y-114.75
M30
