M48
; DRILL file {KiCad 9.0.1} date 2025-04-16T23:21:27+0300
; FORMAT={-:-/ absolute / metric / decimal}
; #@! TF.CreationDate,2025-04-16T23:21:27+03:00
; #@! TF.GenerationSoftware,Kicad,Pcbnew,9.0.1
; #@! TF.FileFunction,Plated,1,2,PTH
FMAT,2
METRIC
; #@! TA.AperFunction,Plated,PTH,ViaDrill
T1C0.300
; #@! TA.AperFunction,Plated,PTH,ComponentDrill
T2C0.800
%
G90
G05
T1
X25.099Y-108.102
X34.8Y-95.974
X40.207Y-108.102
X50.826Y-99.9
X51.8Y-97.245
X58.202Y-100.044
X70.353Y-95.463
X76.445Y-99.894
X81.541Y-105.05
X84.325Y-116.611
X87.543Y-90.825
X93.265Y-102.186
X107.968Y-88.414
X109.202Y-102.186
X110.215Y-87.151
X115.585Y-93.361
X119.8Y-85.98
X125.261Y-87.151
X125.602Y-120.852
X129.135Y-119.846
X132.089Y-117.45
X138.676Y-116.384
X140.575Y-102.878
X158.572Y-116.322
X165.159Y-117.4
X165.888Y-93.313
X167.473Y-90.356
X170.67Y-100.033
X172.45Y-119.933
X173.301Y-105.144
X185.449Y-88.65
X186.547Y-105.144
X188.238Y-119.933
X195.778Y-87.052
X204.393Y-100.033
X205.284Y-102.186
X207.419Y-117.009
X221.008Y-105.144
X234.05Y-98.218
X251.05Y-103.5
X262.593Y-99.259
T2
X128.03Y-67.06
X128.03Y-69.6
X128.03Y-72.14
X128.03Y-74.68
X128.03Y-77.22
X128.03Y-79.76
X128.03Y-82.3
X128.03Y-84.84
X128.03Y-87.38
X128.03Y-89.92
X128.03Y-92.46
X128.03Y-95.0
X128.03Y-97.54
X139.769Y-105.46
X139.769Y-108.0
X139.769Y-110.54
X143.27Y-67.06
X143.27Y-69.6
X143.27Y-72.14
X143.27Y-74.68
X143.27Y-77.22
X143.27Y-79.76
X143.27Y-82.3
X143.27Y-84.84
X143.27Y-87.38
X143.27Y-89.92
X143.27Y-92.46
X143.27Y-95.0
X143.27Y-97.54
X153.99Y-67.06
X153.99Y-69.6
X153.99Y-72.14
X153.99Y-74.68
X153.99Y-77.22
X153.99Y-79.76
X153.99Y-82.3
X153.99Y-84.84
X153.99Y-87.38
X153.99Y-89.92
X153.99Y-92.46
X153.99Y-95.0
X153.99Y-97.54
X157.491Y-105.46
X157.491Y-108.0
X157.491Y-110.54
X169.23Y-67.06
X169.23Y-69.6
X169.23Y-72.14
X169.23Y-74.68
X169.23Y-77.22
X169.23Y-79.76
X169.23Y-82.3
X169.23Y-84.84
X169.23Y-87.38
X169.23Y-89.92
X169.23Y-92.46
X169.23Y-95.0
X169.23Y-97.54
M30
