%TF.GenerationSoftware,KiCad,Pcbnew,9.0.1*%
%TF.CreationDate,2025-04-16T23:21:15+03:00*%
%TF.ProjectId,turfing,74757266-696e-4672-9e6b-696361645f70,rev?*%
%TF.SameCoordinates,Original*%
%TF.FileFunction,Copper,L1,Top*%
%TF.FilePolarity,Positive*%
%FSLAX46Y46*%
G04 Gerber Fmt 4.6, Leading zero omitted, Abs format (unit mm)*
G04 Created by KiCad (PCBNEW 9.0.1) date 2025-04-16 23:21:15*
%MOMM*%
%LPD*%
G01*
G04 APERTURE LIST*
G04 Aperture macros list*
%AMRoundRect*
0 Rectangle with rounded corners*
0 $1 Rounding radius*
0 $2 $3 $4 $5 $6 $7 $8 $9 X,Y pos of 4 corners*
0 Add a 4 corners polygon primitive as box body*
4,1,4,$2,$3,$4,$5,$6,$7,$8,$9,$2,$3,0*
0 Add four circle primitives for the rounded corners*
1,1,$1+$1,$2,$3*
1,1,$1+$1,$4,$5*
1,1,$1+$1,$6,$7*
1,1,$1+$1,$8,$9*
0 Add four rect primitives between the rounded corners*
20,1,$1+$1,$2,$3,$4,$5,0*
20,1,$1+$1,$4,$5,$6,$7,0*
20,1,$1+$1,$6,$7,$8,$9,0*
20,1,$1+$1,$8,$9,$2,$3,0*%
G04 Aperture macros list end*
%TA.AperFunction,ComponentPad*%
%ADD10RoundRect,0.250000X-0.550000X-0.550000X0.550000X-0.550000X0.550000X0.550000X-0.550000X0.550000X0*%
%TD*%
%TA.AperFunction,ComponentPad*%
%ADD11C,1.600000*%
%TD*%
%TA.AperFunction,ComponentPad*%
%ADD12R,1.308000X1.308000*%
%TD*%
%TA.AperFunction,ComponentPad*%
%ADD13C,1.308000*%
%TD*%
%TA.AperFunction,SMDPad,CuDef*%
%ADD14C,2.000000*%
%TD*%
%TA.AperFunction,SMDPad,CuDef*%
%ADD15RoundRect,0.200000X-0.800000X0.800000X-0.800000X-0.800000X0.800000X-0.800000X0.800000X0.800000X0*%
%TD*%
%TA.AperFunction,SMDPad,CuDef*%
%ADD16RoundRect,0.200000X0.800000X-0.800000X0.800000X0.800000X-0.800000X0.800000X-0.800000X-0.800000X0*%
%TD*%
%TA.AperFunction,ViaPad*%
%ADD17C,0.600000*%
%TD*%
%TA.AperFunction,Conductor*%
%ADD18C,0.200000*%
%TD*%
G04 APERTURE END LIST*
D10*
%TO.P,MCU_L1,*%
%TO.N,*%
X128030000Y-67060000D03*
D11*
X143270000Y-67060000D03*
%TO.P,MCU_L1,1,TX0/D3*%
%TO.N,unconnected-(MCU_L1-TX0{slash}D3-Pad1)*%
X128030000Y-69600000D03*
%TO.P,MCU_L1,2,RX1/D2*%
%TO.N,unconnected-(MCU_L1-RX1{slash}D2-Pad2)*%
X128030000Y-72140000D03*
%TO.P,MCU_L1,3,GND*%
%TO.N,GND_L*%
X128030000Y-74680000D03*
%TO.P,MCU_L1,4,GND*%
X128030000Y-77220000D03*
%TO.P,MCU_L1,5,2/D1/SDA*%
%TO.N,unconnected-(MCU_L1-2{slash}D1{slash}SDA-Pad5)*%
X128030000Y-79760000D03*
%TO.P,MCU_L1,6,3/D0/SCL*%
%TO.N,unconnected-(MCU_L1-3{slash}D0{slash}SCL-Pad6)*%
X128030000Y-82300000D03*
%TO.P,MCU_L1,7,4/D4*%
%TO.N,unconnected-(MCU_L1-4{slash}D4-Pad7)*%
X128030000Y-84840000D03*
%TO.P,MCU_L1,8,5/C6*%
%TO.N,ROW_L0*%
X128030000Y-87380000D03*
%TO.P,MCU_L1,9,6/D7*%
%TO.N,ROW_L1*%
X128030000Y-89920000D03*
%TO.P,MCU_L1,10,7/E6*%
%TO.N,ROW_L2*%
X128030000Y-92460000D03*
%TO.P,MCU_L1,11,8/B4*%
%TO.N,ROW_L3*%
X128030000Y-95000000D03*
%TO.P,MCU_L1,12,9/B5*%
%TO.N,unconnected-(MCU_L1-9{slash}B5-Pad12)*%
X128030000Y-97540000D03*
%TO.P,MCU_L1,13,B6/10*%
%TO.N,COL_L5*%
X143270000Y-97540000D03*
%TO.P,MCU_L1,14,B2/16*%
%TO.N,COL_L4*%
X143270000Y-95000000D03*
%TO.P,MCU_L1,15,B3/14*%
%TO.N,COL_L3*%
X143270000Y-92460000D03*
%TO.P,MCU_L1,16,B1/15*%
%TO.N,COL_L2*%
X143270000Y-89920000D03*
%TO.P,MCU_L1,17,F7/A0*%
%TO.N,COL_L1*%
X143270000Y-87380000D03*
%TO.P,MCU_L1,18,F6/A1*%
%TO.N,COL_L0*%
X143270000Y-84840000D03*
%TO.P,MCU_L1,19,F5/A2*%
%TO.N,unconnected-(MCU_L1-F5{slash}A2-Pad19)*%
X143270000Y-82300000D03*
%TO.P,MCU_L1,20,F4/A3*%
%TO.N,unconnected-(MCU_L1-F4{slash}A3-Pad20)*%
X143270000Y-79760000D03*
%TO.P,MCU_L1,21,VCC*%
%TO.N,unconnected-(MCU_L1-VCC-Pad21)*%
X143270000Y-77220000D03*
%TO.P,MCU_L1,22,RST*%
%TO.N,RESET_L*%
X143270000Y-74680000D03*
%TO.P,MCU_L1,23,GND*%
%TO.N,GND_L*%
X143270000Y-72140000D03*
%TO.P,MCU_L1,24,RAW*%
%TO.N,RAW_L*%
X143270000Y-69600000D03*
%TD*%
D12*
%TO.P,PW_R1,1*%
%TO.N,Net-(BAT_R1-BAT+)*%
X157491000Y-108000000D03*
D13*
%TO.P,PW_R1,2*%
%TO.N,unconnected-(PW_R1-Pad2)*%
X157491000Y-110540000D03*
%TO.P,PW_R1,3*%
%TO.N,RAW_R*%
X157491000Y-105460000D03*
%TD*%
D14*
%TO.P,BAT_L1,1,BAT+*%
%TO.N,Net-(BAT_L1-BAT+)*%
X137610000Y-117450000D03*
D15*
%TO.P,BAT_L1,2,BAT-*%
%TO.N,GND_L*%
X133610000Y-117450000D03*
%TD*%
D12*
%TO.P,PW_L1,1*%
%TO.N,Net-(BAT_L1-BAT+)*%
X139769000Y-108000000D03*
D13*
%TO.P,PW_L1,2*%
%TO.N,RAW_L*%
X139769000Y-105460000D03*
%TO.P,PW_L1,3*%
%TO.N,unconnected-(PW_L1-Pad3)*%
X139769000Y-110540000D03*
%TD*%
D10*
%TO.P,MCU_R1,*%
%TO.N,*%
X153990000Y-67060000D03*
D11*
X169230000Y-67060000D03*
%TO.P,MCU_R1,1,TX0/D3*%
%TO.N,unconnected-(MCU_R1-TX0{slash}D3-Pad1)*%
X153990000Y-69600000D03*
%TO.P,MCU_R1,2,RX1/D2*%
%TO.N,unconnected-(MCU_R1-RX1{slash}D2-Pad2)*%
X153990000Y-72140000D03*
%TO.P,MCU_R1,3,GND*%
%TO.N,GND_R*%
X153990000Y-74680000D03*
%TO.P,MCU_R1,4,GND*%
X153990000Y-77220000D03*
%TO.P,MCU_R1,5,2/D1/SDA*%
%TO.N,unconnected-(MCU_R1-2{slash}D1{slash}SDA-Pad5)*%
X153990000Y-79760000D03*
%TO.P,MCU_R1,6,3/D0/SCL*%
%TO.N,unconnected-(MCU_R1-3{slash}D0{slash}SCL-Pad6)*%
X153990000Y-82300000D03*
%TO.P,MCU_R1,7,4/D4*%
%TO.N,unconnected-(MCU_R1-4{slash}D4-Pad7)*%
X153990000Y-84840000D03*
%TO.P,MCU_R1,8,5/C6*%
%TO.N,ROW_R0*%
X153990000Y-87380000D03*
%TO.P,MCU_R1,9,6/D7*%
%TO.N,ROW_R1*%
X153990000Y-89920000D03*
%TO.P,MCU_R1,10,7/E6*%
%TO.N,ROW_R2*%
X153990000Y-92460000D03*
%TO.P,MCU_R1,11,8/B4*%
%TO.N,ROW_R3*%
X153990000Y-95000000D03*
%TO.P,MCU_R1,12,9/B5*%
%TO.N,unconnected-(MCU_R1-9{slash}B5-Pad12)*%
X153990000Y-97540000D03*
%TO.P,MCU_R1,13,B6/10*%
%TO.N,COL_R5*%
X169230000Y-97540000D03*
%TO.P,MCU_R1,14,B2/16*%
%TO.N,COL_R4*%
X169230000Y-95000000D03*
%TO.P,MCU_R1,15,B3/14*%
%TO.N,COL_R3*%
X169230000Y-92460000D03*
%TO.P,MCU_R1,16,B1/15*%
%TO.N,COL_R2*%
X169230000Y-89920000D03*
%TO.P,MCU_R1,17,F7/A0*%
%TO.N,COL_R1*%
X169230000Y-87380000D03*
%TO.P,MCU_R1,18,F6/A1*%
%TO.N,COL_R0*%
X169230000Y-84840000D03*
%TO.P,MCU_R1,19,F5/A2*%
%TO.N,unconnected-(MCU_R1-F5{slash}A2-Pad19)*%
X169230000Y-82300000D03*
%TO.P,MCU_R1,20,F4/A3*%
%TO.N,unconnected-(MCU_R1-F4{slash}A3-Pad20)*%
X169230000Y-79760000D03*
%TO.P,MCU_R1,21,VCC*%
%TO.N,unconnected-(MCU_R1-VCC-Pad21)*%
X169230000Y-77220000D03*
%TO.P,MCU_R1,22,RST*%
%TO.N,RESET_R*%
X169230000Y-74680000D03*
%TO.P,MCU_R1,23,GND*%
%TO.N,GND_R*%
X169230000Y-72140000D03*
%TO.P,MCU_R1,24,RAW*%
%TO.N,RAW_R*%
X169230000Y-69600000D03*
%TD*%
D14*
%TO.P,BAT_R1,1,BAT+*%
%TO.N,Net-(BAT_R1-BAT+)*%
X159650000Y-117400000D03*
D16*
%TO.P,BAT_R1,2,BAT-*%
%TO.N,GND_R*%
X163650000Y-117400000D03*
%TD*%
D17*
%TO.N,GND_L*%
X132089100Y-117450000D03*
X84325000Y-116610700D03*
%TO.N,Net-(BAT_L1-BAT+)*%
X138675700Y-116384300D03*
%TO.N,GND_R*%
X207419300Y-117008900D03*
X165158700Y-117400000D03*
%TO.N,Net-(BAT_R1-BAT+)*%
X158571700Y-116321700D03*
%TO.N,ROW_L1*%
X110215100Y-87150900D03*
X125260900Y-87150900D03*
%TO.N,ROW_L2*%
X109202400Y-102186400D03*
X76445000Y-99893800D03*
X40207500Y-108101800D03*
X50826100Y-99899800D03*
X93264800Y-102186400D03*
X115585300Y-93360600D03*
X58202400Y-100044500D03*
X25099100Y-108101800D03*
%TO.N,ROW_L3*%
X129134600Y-119845500D03*
X125602400Y-120851800D03*
%TO.N,ROW_R1*%
X167473400Y-90355600D03*
X185449300Y-88650000D03*
%TO.N,ROW_R2*%
X173300900Y-105144100D03*
X165887800Y-93313300D03*
X205284400Y-102186400D03*
X221008300Y-105144100D03*
X186547300Y-105144100D03*
%TO.N,ROW_R3*%
X188238200Y-119932600D03*
X172450000Y-119932600D03*
%TO.N,COL_L1*%
X107968200Y-88413700D03*
%TO.N,COL_L4*%
X51800000Y-97244900D03*
%TO.N,COL_L5*%
X34800000Y-95973500D03*
%TO.N,COL_L2*%
X87542700Y-90825100D03*
%TO.N,COL_L0*%
X119800000Y-85979600D03*
%TO.N,COL_L3*%
X70353200Y-95462700D03*
%TO.N,COL_R4*%
X251050000Y-103500400D03*
%TO.N,COL_R1*%
X195777500Y-87051600D03*
%TO.N,COL_R2*%
X204393400Y-100032700D03*
X170669800Y-100032700D03*
%TO.N,COL_R5*%
X262592700Y-99259100D03*
%TO.N,COL_R3*%
X234050000Y-98218500D03*
%TO.N,RESET_L*%
X140575100Y-102877800D03*
X81541200Y-105050000D03*
%TD*%
D18*
%TO.N,GND_L*%
X132089100Y-117450000D02*
X131249800Y-116610700D01*
X143270000Y-72140000D02*
X140730000Y-74680000D01*
X140730000Y-74680000D02*
X128030000Y-74680000D01*
X131249800Y-116610700D02*
X84325000Y-116610700D01*
X133610000Y-117450000D02*
X132089100Y-117450000D01*
%TO.N,Net-(BAT_L1-BAT+)*%
X137610000Y-117450000D02*
X138675700Y-116384300D01*
%TO.N,GND_R*%
X165549800Y-117008900D02*
X165158700Y-117400000D01*
X169230000Y-72140000D02*
X166690000Y-74680000D01*
X163650000Y-117400000D02*
X165158700Y-117400000D01*
X166690000Y-74680000D02*
X153990000Y-74680000D01*
X207419300Y-117008900D02*
X165549800Y-117008900D01*
%TO.N,Net-(BAT_R1-BAT+)*%
X159650000Y-117400000D02*
X158571700Y-116321700D01*
%TO.N,ROW_L1*%
X125260900Y-87150900D02*
X110215100Y-87150900D01*
%TO.N,ROW_L2*%
X50970800Y-100044500D02*
X50826100Y-99899800D01*
X118683100Y-93120400D02*
X118235700Y-93567800D01*
X76623100Y-99715700D02*
X90794100Y-99715700D01*
X58202400Y-100044500D02*
X50970800Y-100044500D01*
X40207500Y-108101800D02*
X25099100Y-108101800D01*
X109202400Y-102186400D02*
X93264800Y-102186400D01*
X115792500Y-93567800D02*
X115585300Y-93360600D01*
X76294300Y-100044500D02*
X58202400Y-100044500D01*
X118235700Y-93567800D02*
X115792500Y-93567800D01*
X76445000Y-99893800D02*
X76294300Y-100044500D01*
X90794100Y-99715700D02*
X93264800Y-102186400D01*
X127369600Y-93120400D02*
X118683100Y-93120400D01*
X128030000Y-92460000D02*
X127369600Y-93120400D01*
X76445000Y-99893800D02*
X76623100Y-99715700D01*
%TO.N,ROW_L3*%
X126608700Y-119845500D02*
X129134600Y-119845500D01*
X125602400Y-120851800D02*
X126608700Y-119845500D01*
%TO.N,ROW_R1*%
X167473400Y-90093300D02*
X168916700Y-88650000D01*
X168916700Y-88650000D02*
X185449300Y-88650000D01*
X154425600Y-90355600D02*
X153990000Y-89920000D01*
X167473400Y-90355600D02*
X167473400Y-90093300D01*
X167473400Y-90355600D02*
X154425600Y-90355600D01*
%TO.N,ROW_R2*%
X165887800Y-93313300D02*
X154843300Y-93313300D01*
X206673100Y-103575100D02*
X211533900Y-103575100D01*
X186547300Y-105144100D02*
X189505000Y-102186400D01*
X205284400Y-102186400D02*
X206673100Y-103575100D01*
X213102900Y-105144100D02*
X221008300Y-105144100D01*
X173300900Y-105144100D02*
X186547300Y-105144100D01*
X211533900Y-103575100D02*
X213102900Y-105144100D01*
X189505000Y-102186400D02*
X205284400Y-102186400D01*
X154843300Y-93313300D02*
X153990000Y-92460000D01*
%TO.N,ROW_R3*%
X172450000Y-119932600D02*
X188238200Y-119932600D01*
%TO.N,COL_L1*%
X142167200Y-88482800D02*
X108037300Y-88482800D01*
X143270000Y-87380000D02*
X142167200Y-88482800D01*
X108037300Y-88482800D02*
X107968200Y-88413700D01*
%TO.N,COL_L4*%
X119070500Y-96120500D02*
X118024000Y-95074000D01*
X112936800Y-97244900D02*
X51800000Y-97244900D01*
X143270000Y-95000000D02*
X142149500Y-96120500D01*
X118024000Y-95074000D02*
X115107700Y-95074000D01*
X142149500Y-96120500D02*
X119070500Y-96120500D01*
X115107700Y-95074000D02*
X112936800Y-97244900D01*
%TO.N,COL_L5*%
X48450200Y-99281400D02*
X46283900Y-97115100D01*
X141528600Y-99281400D02*
X48450200Y-99281400D01*
X46283900Y-97115100D02*
X40909200Y-97115100D01*
X40909200Y-97115100D02*
X39767600Y-95973500D01*
X39767600Y-95973500D02*
X34800000Y-95973500D01*
X143270000Y-97540000D02*
X141528600Y-99281400D01*
%TO.N,COL_L2*%
X97283900Y-90825100D02*
X87542700Y-90825100D01*
X125574000Y-89028100D02*
X107845700Y-89028100D01*
X98041300Y-91582500D02*
X97283900Y-90825100D01*
X143270000Y-89920000D02*
X142162700Y-91027300D01*
X105291300Y-91582500D02*
X98041300Y-91582500D01*
X127573200Y-91027300D02*
X125574000Y-89028100D01*
X107845700Y-89028100D02*
X105291300Y-91582500D01*
X142162700Y-91027300D02*
X127573200Y-91027300D01*
%TO.N,COL_L0*%
X142130400Y-85979600D02*
X119800000Y-85979600D01*
X143270000Y-84840000D02*
X142130400Y-85979600D01*
%TO.N,COL_L3*%
X99188500Y-92934000D02*
X114307800Y-92934000D01*
X119003900Y-93567800D02*
X142162200Y-93567800D01*
X70353200Y-95462700D02*
X96659800Y-95462700D01*
X96659800Y-95462700D02*
X99188500Y-92934000D01*
X115343300Y-93969500D02*
X118602200Y-93969500D01*
X142162200Y-93567800D02*
X143270000Y-92460000D01*
X114307800Y-92934000D02*
X115343300Y-93969500D01*
X118602200Y-93969500D02*
X119003900Y-93567800D01*
%TO.N,COL_R4*%
X207970100Y-100656200D02*
X208930500Y-99695800D01*
X170406400Y-100656200D02*
X207970100Y-100656200D01*
X238588100Y-99695800D02*
X242392700Y-103500400D01*
X242392700Y-103500400D02*
X251050000Y-103500400D01*
X169230000Y-95000000D02*
X168059500Y-96170500D01*
X168059500Y-98309300D02*
X170406400Y-100656200D01*
X208930500Y-99695800D02*
X238588100Y-99695800D01*
X168059500Y-96170500D02*
X168059500Y-98309300D01*
%TO.N,COL_R1*%
X169230000Y-87380000D02*
X169558400Y-87051600D01*
X169558400Y-87051600D02*
X195777500Y-87051600D01*
%TO.N,COL_R2*%
X170669800Y-100032700D02*
X204393400Y-100032700D01*
%TO.N,COL_R5*%
X247677900Y-99259100D02*
X245601800Y-97183000D01*
X235690400Y-99241700D02*
X170931700Y-99241700D01*
X262592700Y-99259100D02*
X247677900Y-99259100D01*
X237749100Y-97183000D02*
X235690400Y-99241700D01*
X245601800Y-97183000D02*
X237749100Y-97183000D01*
X170931700Y-99241700D02*
X169230000Y-97540000D01*
%TO.N,COL_R3*%
X177533900Y-92865100D02*
X179150400Y-94481600D01*
X184183300Y-98218500D02*
X234050000Y-98218500D01*
X169635100Y-92865100D02*
X177533900Y-92865100D01*
X179150400Y-94481600D02*
X180446400Y-94481600D01*
X180446400Y-94481600D02*
X184183300Y-98218500D01*
X169230000Y-92460000D02*
X169635100Y-92865100D01*
%TO.N,RESET_L*%
X140575100Y-102877800D02*
X92524700Y-102877800D01*
X92524700Y-102877800D02*
X90352500Y-105050000D01*
X90352500Y-105050000D02*
X81541200Y-105050000D01*
%TD*%
M02*
