%TF.GenerationSoftware,KiCad,Pcbnew,9.0.1*%
%TF.CreationDate,2025-04-16T23:21:15+03:00*%
%TF.ProjectId,turfing,74757266-696e-4672-9e6b-696361645f70,rev?*%
%TF.SameCoordinates,Original*%
%TF.FileFunction,Soldermask,Top*%
%TF.FilePolarity,Negative*%
%FSLAX46Y46*%
G04 Gerber Fmt 4.6, Leading zero omitted, Abs format (unit mm)*
G04 Created by KiCad (PCBNEW 9.0.1) date 2025-04-16 23:21:15*
%MOMM*%
%LPD*%
G01*
G04 APERTURE LIST*
G04 Aperture macros list*
%AMRoundRect*
0 Rectangle with rounded corners*
0 $1 Rounding radius*
0 $2 $3 $4 $5 $6 $7 $8 $9 X,Y pos of 4 corners*
0 Add a 4 corners polygon primitive as box body*
4,1,4,$2,$3,$4,$5,$6,$7,$8,$9,$2,$3,0*
0 Add four circle primitives for the rounded corners*
1,1,$1+$1,$2,$3*
1,1,$1+$1,$4,$5*
1,1,$1+$1,$6,$7*
1,1,$1+$1,$8,$9*
0 Add four rect primitives between the rounded corners*
20,1,$1+$1,$2,$3,$4,$5,0*
20,1,$1+$1,$4,$5,$6,$7,0*
20,1,$1+$1,$6,$7,$8,$9,0*
20,1,$1+$1,$8,$9,$2,$3,0*%
G04 Aperture macros list end*
%ADD10C,1.900000*%
%ADD11C,3.000000*%
%ADD12C,3.400000*%
%ADD13RoundRect,0.250000X-0.550000X-0.550000X0.550000X-0.550000X0.550000X0.550000X-0.550000X0.550000X0*%
%ADD14C,1.600000*%
%ADD15RoundRect,0.102000X0.654000X-0.654000X0.654000X0.654000X-0.654000X0.654000X-0.654000X-0.654000X0*%
%ADD16C,1.512000*%
%ADD17C,2.000000*%
%ADD18RoundRect,0.200000X-0.800000X0.800000X-0.800000X-0.800000X0.800000X-0.800000X0.800000X0.800000X0*%
%ADD19RoundRect,0.102000X-0.654000X0.654000X-0.654000X-0.654000X0.654000X-0.654000X0.654000X0.654000X0*%
%ADD20RoundRect,0.200000X0.800000X-0.800000X0.800000X0.800000X-0.800000X0.800000X-0.800000X-0.800000X0*%
G04 APERTURE END LIST*
D10*
%TO.C,SW16*%
X60500000Y-106250000D03*
D11*
X61000000Y-109950000D03*
D12*
X66000000Y-106250000D03*
D11*
X66000000Y-112150000D03*
D10*
X71500000Y-106250000D03*
%TD*%
%TO.C,SW29*%
X191750000Y-89250000D03*
D11*
X192250000Y-92950000D03*
D12*
X197250000Y-89250000D03*
D11*
X197250000Y-95150000D03*
D10*
X202750000Y-89250000D03*
%TD*%
%TO.C,SW20*%
X111500000Y-125290000D03*
D11*
X112000000Y-128990000D03*
D12*
X117000000Y-125290000D03*
D11*
X117000000Y-131190000D03*
D10*
X122500000Y-125290000D03*
%TD*%
%TO.C,SW42*%
X191750000Y-123250000D03*
D11*
X192250000Y-126950000D03*
D12*
X197250000Y-123250000D03*
D11*
X197250000Y-129150000D03*
D10*
X202750000Y-123250000D03*
%TD*%
%TO.C,SW17*%
X43500000Y-112540000D03*
D11*
X44000000Y-116240000D03*
D12*
X49000000Y-112540000D03*
D11*
X49000000Y-118440000D03*
D10*
X54500000Y-112540000D03*
%TD*%
%TO.C,SW5*%
X43500000Y-78540000D03*
D11*
X44000000Y-82240000D03*
D12*
X49000000Y-78540000D03*
D11*
X49000000Y-84440000D03*
D10*
X54500000Y-78540000D03*
%TD*%
%TO.C,SW10*%
X60500000Y-89250000D03*
D11*
X61000000Y-92950000D03*
D12*
X66000000Y-89250000D03*
D11*
X66000000Y-95150000D03*
D10*
X71500000Y-89250000D03*
%TD*%
D13*
%TO.C,MCU_L1*%
X128030000Y-67060000D03*
D14*
X143270000Y-67060000D03*
X128030000Y-69600000D03*
X128030000Y-72140000D03*
X128030000Y-74680000D03*
X128030000Y-77220000D03*
X128030000Y-79760000D03*
X128030000Y-82300000D03*
X128030000Y-84840000D03*
X128030000Y-87380000D03*
X128030000Y-89920000D03*
X128030000Y-92460000D03*
X128030000Y-95000000D03*
X128030000Y-97540000D03*
X143270000Y-97540000D03*
X143270000Y-95000000D03*
X143270000Y-92460000D03*
X143270000Y-89920000D03*
X143270000Y-87380000D03*
X143270000Y-84840000D03*
X143270000Y-82300000D03*
X143270000Y-79760000D03*
X143270000Y-77220000D03*
X143270000Y-74680000D03*
X143270000Y-72140000D03*
X143270000Y-69600000D03*
%TD*%
D10*
%TO.C,SW24*%
X208750000Y-68000000D03*
D11*
X209250000Y-71700000D03*
D12*
X214250000Y-68000000D03*
D11*
X214250000Y-73900000D03*
D10*
X219750000Y-68000000D03*
%TD*%
%TO.C,SW4*%
X60500000Y-72250000D03*
D11*
X61000000Y-75950000D03*
D12*
X66000000Y-72250000D03*
D11*
X66000000Y-78150000D03*
D10*
X71500000Y-72250000D03*
%TD*%
%TO.C,SW22*%
X174750000Y-74290000D03*
D11*
X175250000Y-77990000D03*
D12*
X180250000Y-74290000D03*
D11*
X180250000Y-80190000D03*
D10*
X185750000Y-74290000D03*
%TD*%
%TO.C,SW36*%
X208750000Y-102000000D03*
D11*
X209250000Y-105700000D03*
D12*
X214250000Y-102000000D03*
D11*
X214250000Y-107900000D03*
D10*
X219750000Y-102000000D03*
%TD*%
%TO.C,SW34*%
X174750000Y-108290000D03*
D11*
X175250000Y-111990000D03*
D12*
X180250000Y-108290000D03*
D11*
X180250000Y-114190000D03*
D10*
X185750000Y-108290000D03*
%TD*%
%TO.C,SW15*%
X77500000Y-102000000D03*
D11*
X78000000Y-105700000D03*
D12*
X83000000Y-102000000D03*
D11*
X83000000Y-107900000D03*
D10*
X88500000Y-102000000D03*
%TD*%
%TO.C,SW40*%
X157750000Y-127500000D03*
D11*
X158250000Y-131200000D03*
D12*
X163250000Y-127500000D03*
D11*
X163250000Y-133400000D03*
D10*
X168750000Y-127500000D03*
%TD*%
%TO.C,SW7*%
X111500000Y-91290000D03*
D11*
X112000000Y-94990000D03*
D12*
X117000000Y-91290000D03*
D11*
X117000000Y-97190000D03*
D10*
X122500000Y-91290000D03*
%TD*%
%TO.C,SW23*%
X191750000Y-72250000D03*
D11*
X192250000Y-75950000D03*
D12*
X197250000Y-72250000D03*
D11*
X197250000Y-78150000D03*
D10*
X202750000Y-72250000D03*
%TD*%
D15*
%TO.C,PW_R1*%
X157491000Y-108000000D03*
D16*
X157491000Y-110540000D03*
X157491000Y-105460000D03*
%TD*%
D10*
%TO.C,SW32*%
X242750000Y-95540000D03*
D11*
X243250000Y-99240000D03*
D12*
X248250000Y-95540000D03*
D11*
X248250000Y-101440000D03*
D10*
X253750000Y-95540000D03*
%TD*%
D17*
%TO.C,BAT_L1*%
X137610000Y-117450000D03*
D18*
X133610000Y-117450000D03*
%TD*%
D10*
%TO.C,SW3*%
X77500000Y-68000000D03*
D11*
X78000000Y-71700000D03*
D12*
X83000000Y-68000000D03*
D11*
X83000000Y-73900000D03*
D10*
X88500000Y-68000000D03*
%TD*%
%TO.C,SW21*%
X94500000Y-123250000D03*
D11*
X95000000Y-126950000D03*
D12*
X100000000Y-123250000D03*
D11*
X100000000Y-129150000D03*
D10*
X105500000Y-123250000D03*
%TD*%
%TO.C,SW38*%
X242750000Y-112540000D03*
D11*
X243250000Y-116240000D03*
D12*
X248250000Y-112540000D03*
D11*
X248250000Y-118440000D03*
D10*
X253750000Y-112540000D03*
%TD*%
%TO.C,SW25*%
X225750000Y-72250000D03*
D11*
X226250000Y-75950000D03*
D12*
X231250000Y-72250000D03*
D11*
X231250000Y-78150000D03*
D10*
X236750000Y-72250000D03*
%TD*%
%TO.C,SW8*%
X94500000Y-89250000D03*
D11*
X95000000Y-92950000D03*
D12*
X100000000Y-89250000D03*
D11*
X100000000Y-95150000D03*
D10*
X105500000Y-89250000D03*
%TD*%
%TO.C,SW19*%
X128500000Y-127500000D03*
D11*
X129000000Y-131200000D03*
D12*
X134000000Y-127500000D03*
D11*
X134000000Y-133400000D03*
D10*
X139500000Y-127500000D03*
%TD*%
%TO.C,SW30*%
X208750000Y-85000000D03*
D11*
X209250000Y-88700000D03*
D12*
X214250000Y-85000000D03*
D11*
X214250000Y-90900000D03*
D10*
X219750000Y-85000000D03*
%TD*%
%TO.C,SW12*%
X26500000Y-97750000D03*
D11*
X27000000Y-101450000D03*
D12*
X32000000Y-97750000D03*
D11*
X32000000Y-103650000D03*
D10*
X37500000Y-97750000D03*
%TD*%
%TO.C,SW11*%
X43500000Y-95540000D03*
D11*
X44000000Y-99240000D03*
D12*
X49000000Y-95540000D03*
D11*
X49000000Y-101440000D03*
D10*
X54500000Y-95540000D03*
%TD*%
%TO.C,SW27*%
X259750000Y-80750000D03*
D11*
X260250000Y-84450000D03*
D12*
X265250000Y-80750000D03*
D11*
X265250000Y-86650000D03*
D10*
X270750000Y-80750000D03*
%TD*%
%TO.C,SW13*%
X111500000Y-108290000D03*
D11*
X112000000Y-111990000D03*
D12*
X117000000Y-108290000D03*
D11*
X117000000Y-114190000D03*
D10*
X122500000Y-108290000D03*
%TD*%
D19*
%TO.C,PW_L1*%
X139769000Y-108000000D03*
D16*
X139769000Y-105460000D03*
X139769000Y-110540000D03*
%TD*%
D13*
%TO.C,MCU_R1*%
X153990000Y-67060000D03*
D14*
X169230000Y-67060000D03*
X153990000Y-69600000D03*
X153990000Y-72140000D03*
X153990000Y-74680000D03*
X153990000Y-77220000D03*
X153990000Y-79760000D03*
X153990000Y-82300000D03*
X153990000Y-84840000D03*
X153990000Y-87380000D03*
X153990000Y-89920000D03*
X153990000Y-92460000D03*
X153990000Y-95000000D03*
X153990000Y-97540000D03*
X169230000Y-97540000D03*
X169230000Y-95000000D03*
X169230000Y-92460000D03*
X169230000Y-89920000D03*
X169230000Y-87380000D03*
X169230000Y-84840000D03*
X169230000Y-82300000D03*
X169230000Y-79760000D03*
X169230000Y-77220000D03*
X169230000Y-74680000D03*
X169230000Y-72140000D03*
X169230000Y-69600000D03*
%TD*%
D10*
%TO.C,SW35*%
X191750000Y-106250000D03*
D11*
X192250000Y-109950000D03*
D12*
X197250000Y-106250000D03*
D11*
X197250000Y-112150000D03*
D10*
X202750000Y-106250000D03*
%TD*%
%TO.C,SW31*%
X225750000Y-89250000D03*
D11*
X226250000Y-92950000D03*
D12*
X231250000Y-89250000D03*
D11*
X231250000Y-95150000D03*
D10*
X236750000Y-89250000D03*
%TD*%
%TO.C,SW2*%
X94500000Y-72250000D03*
D11*
X95000000Y-75950000D03*
D12*
X100000000Y-72250000D03*
D11*
X100000000Y-78150000D03*
D10*
X105500000Y-72250000D03*
%TD*%
%TO.C,SW9*%
X77500000Y-85000000D03*
D11*
X78000000Y-88700000D03*
D12*
X83000000Y-85000000D03*
D11*
X83000000Y-90900000D03*
D10*
X88500000Y-85000000D03*
%TD*%
%TO.C,SW39*%
X259750000Y-114750000D03*
D11*
X260250000Y-118450000D03*
D12*
X265250000Y-114750000D03*
D11*
X265250000Y-120650000D03*
D10*
X270750000Y-114750000D03*
%TD*%
%TO.C,SW18*%
X26500000Y-114750000D03*
D11*
X27000000Y-118450000D03*
D12*
X32000000Y-114750000D03*
D11*
X32000000Y-120650000D03*
D10*
X37500000Y-114750000D03*
%TD*%
%TO.C,SW33*%
X259750000Y-97750000D03*
D11*
X260250000Y-101450000D03*
D12*
X265250000Y-97750000D03*
D11*
X265250000Y-103650000D03*
D10*
X270750000Y-97750000D03*
%TD*%
%TO.C,SW14*%
X94500000Y-106250000D03*
D11*
X95000000Y-109950000D03*
D12*
X100000000Y-106250000D03*
D11*
X100000000Y-112150000D03*
D10*
X105500000Y-106250000D03*
%TD*%
%TO.C,SW6*%
X26500000Y-80750000D03*
D11*
X27000000Y-84450000D03*
D12*
X32000000Y-80750000D03*
D11*
X32000000Y-86650000D03*
D10*
X37500000Y-80750000D03*
%TD*%
%TO.C,SW1*%
X111500000Y-74290000D03*
D11*
X112000000Y-77990000D03*
D12*
X117000000Y-74290000D03*
D11*
X117000000Y-80190000D03*
D10*
X122500000Y-74290000D03*
%TD*%
%TO.C,SW41*%
X174750000Y-125290000D03*
D11*
X175250000Y-128990000D03*
D12*
X180250000Y-125290000D03*
D11*
X180250000Y-131190000D03*
D10*
X185750000Y-125290000D03*
%TD*%
%TO.C,SW28*%
X174750000Y-91290000D03*
D11*
X175250000Y-94990000D03*
D12*
X180250000Y-91290000D03*
D11*
X180250000Y-97190000D03*
D10*
X185750000Y-91290000D03*
%TD*%
D17*
%TO.C,BAT_R1*%
X159650000Y-117400000D03*
D20*
X163650000Y-117400000D03*
%TD*%
D10*
%TO.C,SW26*%
X242750000Y-78540000D03*
D11*
X243250000Y-82240000D03*
D12*
X248250000Y-78540000D03*
D11*
X248250000Y-84440000D03*
D10*
X253750000Y-78540000D03*
%TD*%
%TO.C,SW37*%
X225750000Y-106250000D03*
D11*
X226250000Y-109950000D03*
D12*
X231250000Y-106250000D03*
D11*
X231250000Y-112150000D03*
D10*
X236750000Y-106250000D03*
%TD*%
M02*
