%TF.GenerationSoftware,KiCad,Pcbnew,9.0.1*%
%TF.CreationDate,2025-04-16T23:21:15+03:00*%
%TF.ProjectId,turfing,74757266-696e-4672-9e6b-696361645f70,rev?*%
%TF.SameCoordinates,Original*%
%TF.FileFunction,Legend,Top*%
%TF.FilePolarity,Positive*%
%FSLAX46Y46*%
G04 Gerber Fmt 4.6, Leading zero omitted, Abs format (unit mm)*
G04 Created by KiCad (PCBNEW 9.0.1) date 2025-04-16 23:21:15*
%MOMM*%
%LPD*%
G01*
G04 APERTURE LIST*
%ADD10C,0.100000*%
%ADD11C,0.000000*%
G04 APERTURE END LIST*
D10*
X136912419Y-110655639D02*
X136912419Y-110465163D01*
X136912419Y-110465163D02*
X136960038Y-110369925D01*
X136960038Y-110369925D02*
X137055276Y-110274687D01*
X137055276Y-110274687D02*
X137245752Y-110227068D01*
X137245752Y-110227068D02*
X137579085Y-110227068D01*
X137579085Y-110227068D02*
X137769561Y-110274687D01*
X137769561Y-110274687D02*
X137864800Y-110369925D01*
X137864800Y-110369925D02*
X137912419Y-110465163D01*
X137912419Y-110465163D02*
X137912419Y-110655639D01*
X137912419Y-110655639D02*
X137864800Y-110750877D01*
X137864800Y-110750877D02*
X137769561Y-110846115D01*
X137769561Y-110846115D02*
X137579085Y-110893734D01*
X137579085Y-110893734D02*
X137245752Y-110893734D01*
X137245752Y-110893734D02*
X137055276Y-110846115D01*
X137055276Y-110846115D02*
X136960038Y-110750877D01*
X136960038Y-110750877D02*
X136912419Y-110655639D01*
X137912419Y-109798496D02*
X136912419Y-109798496D01*
X136912419Y-109798496D02*
X137912419Y-109227068D01*
X137912419Y-109227068D02*
X136912419Y-109227068D01*
X161077580Y-109414360D02*
X161077580Y-109604836D01*
X161077580Y-109604836D02*
X161029961Y-109700074D01*
X161029961Y-109700074D02*
X160934723Y-109795312D01*
X160934723Y-109795312D02*
X160744247Y-109842931D01*
X160744247Y-109842931D02*
X160410914Y-109842931D01*
X160410914Y-109842931D02*
X160220438Y-109795312D01*
X160220438Y-109795312D02*
X160125200Y-109700074D01*
X160125200Y-109700074D02*
X160077580Y-109604836D01*
X160077580Y-109604836D02*
X160077580Y-109414360D01*
X160077580Y-109414360D02*
X160125200Y-109319122D01*
X160125200Y-109319122D02*
X160220438Y-109223884D01*
X160220438Y-109223884D02*
X160410914Y-109176265D01*
X160410914Y-109176265D02*
X160744247Y-109176265D01*
X160744247Y-109176265D02*
X160934723Y-109223884D01*
X160934723Y-109223884D02*
X161029961Y-109319122D01*
X161029961Y-109319122D02*
X161077580Y-109414360D01*
X160077580Y-110271503D02*
X161077580Y-110271503D01*
X161077580Y-110271503D02*
X160077580Y-110842931D01*
X160077580Y-110842931D02*
X161077580Y-110842931D01*
X160957580Y-105064360D02*
X160957580Y-105254836D01*
X160957580Y-105254836D02*
X160909961Y-105350074D01*
X160909961Y-105350074D02*
X160814723Y-105445312D01*
X160814723Y-105445312D02*
X160624247Y-105492931D01*
X160624247Y-105492931D02*
X160290914Y-105492931D01*
X160290914Y-105492931D02*
X160100438Y-105445312D01*
X160100438Y-105445312D02*
X160005200Y-105350074D01*
X160005200Y-105350074D02*
X159957580Y-105254836D01*
X159957580Y-105254836D02*
X159957580Y-105064360D01*
X159957580Y-105064360D02*
X160005200Y-104969122D01*
X160005200Y-104969122D02*
X160100438Y-104873884D01*
X160100438Y-104873884D02*
X160290914Y-104826265D01*
X160290914Y-104826265D02*
X160624247Y-104826265D01*
X160624247Y-104826265D02*
X160814723Y-104873884D01*
X160814723Y-104873884D02*
X160909961Y-104969122D01*
X160909961Y-104969122D02*
X160957580Y-105064360D01*
X160481390Y-106254836D02*
X160481390Y-105921503D01*
X159957580Y-105921503D02*
X160957580Y-105921503D01*
X160957580Y-105921503D02*
X160957580Y-106397693D01*
X160481390Y-107111979D02*
X160481390Y-106778646D01*
X159957580Y-106778646D02*
X160957580Y-106778646D01*
X160957580Y-106778646D02*
X160957580Y-107254836D01*
X136832419Y-106935639D02*
X136832419Y-106745163D01*
X136832419Y-106745163D02*
X136880038Y-106649925D01*
X136880038Y-106649925D02*
X136975276Y-106554687D01*
X136975276Y-106554687D02*
X137165752Y-106507068D01*
X137165752Y-106507068D02*
X137499085Y-106507068D01*
X137499085Y-106507068D02*
X137689561Y-106554687D01*
X137689561Y-106554687D02*
X137784800Y-106649925D01*
X137784800Y-106649925D02*
X137832419Y-106745163D01*
X137832419Y-106745163D02*
X137832419Y-106935639D01*
X137832419Y-106935639D02*
X137784800Y-107030877D01*
X137784800Y-107030877D02*
X137689561Y-107126115D01*
X137689561Y-107126115D02*
X137499085Y-107173734D01*
X137499085Y-107173734D02*
X137165752Y-107173734D01*
X137165752Y-107173734D02*
X136975276Y-107126115D01*
X136975276Y-107126115D02*
X136880038Y-107030877D01*
X136880038Y-107030877D02*
X136832419Y-106935639D01*
X137308609Y-105745163D02*
X137308609Y-106078496D01*
X137832419Y-106078496D02*
X136832419Y-106078496D01*
X136832419Y-106078496D02*
X136832419Y-105602306D01*
X137308609Y-104888020D02*
X137308609Y-105221353D01*
X137832419Y-105221353D02*
X136832419Y-105221353D01*
X136832419Y-105221353D02*
X136832419Y-104745163D01*
%TO.C,BAT_L1*%
X131785000Y-117525000D02*
X130785000Y-117525000D01*
X139285000Y-117525000D02*
X140285000Y-117525000D01*
X139785000Y-118025000D02*
X139785000Y-117025000D01*
D11*
%TO.C,G\u002A\u002A\u002A*%
G36*
X150111182Y-131330000D02*
G01*
X150111182Y-132831182D01*
X148610000Y-132831182D01*
X147108818Y-132831182D01*
X147108818Y-132470898D01*
X147724965Y-132470898D01*
X148737931Y-132470898D01*
X149750898Y-132470898D01*
X149750898Y-131960496D01*
X149750898Y-131450094D01*
X149247671Y-131450094D01*
X148744443Y-131450094D01*
X148234704Y-131960496D01*
X147724965Y-132470898D01*
X147108818Y-132470898D01*
X147108818Y-132215035D01*
X147469101Y-132215035D01*
X147979503Y-131705295D01*
X148489905Y-131195556D01*
X148489905Y-130692328D01*
X148489905Y-130189101D01*
X147979503Y-130189101D01*
X147469101Y-130189101D01*
X147469101Y-131202068D01*
X147469101Y-132215035D01*
X147108818Y-132215035D01*
X147108818Y-131330000D01*
X147108818Y-131202068D01*
X147108818Y-129828818D01*
X148610000Y-129828818D01*
X150111182Y-129828818D01*
X150111182Y-131330000D01*
G37*
D10*
%TO.C,BAT_R1*%
X157475000Y-116825000D02*
X157475000Y-117825000D01*
X157975000Y-117325000D02*
X156975000Y-117325000D01*
X165475000Y-117325000D02*
X166475000Y-117325000D01*
%TD*%
M02*
