%TF.GenerationSoftware,KiCad,Pcbnew,9.0.1*%
%TF.CreationDate,2025-04-16T23:21:15+03:00*%
%TF.ProjectId,turfing,74757266-696e-4672-9e6b-696361645f70,rev?*%
%TF.SameCoordinates,Original*%
%TF.FileFunction,Legend,Bot*%
%TF.FilePolarity,Positive*%
%FSLAX46Y46*%
G04 Gerber Fmt 4.6, Leading zero omitted, Abs format (unit mm)*
G04 Created by KiCad (PCBNEW 9.0.1) date 2025-04-16 23:21:15*
%MOMM*%
%LPD*%
G01*
G04 APERTURE LIST*
%ADD10C,0.100000*%
G04 APERTURE END LIST*
D10*
%TO.C,D31*%
X222952400Y-86125100D02*
X223952400Y-86125100D01*
%TO.C,D1*%
X108700000Y-71150100D02*
X109700000Y-71150100D01*
%TO.C,D32*%
X239952400Y-92425100D02*
X240952400Y-92425100D01*
%TO.C,D17*%
X40702400Y-109425100D02*
X41702400Y-109425100D01*
%TO.C,D10*%
X57700000Y-86125000D02*
X58700000Y-86125000D01*
%TO.C,D12*%
X23700000Y-94625000D02*
X24700000Y-94625000D01*
%TO.C,D27*%
X256950000Y-77625000D02*
X257950000Y-77625000D01*
%TO.C,D30*%
X205952400Y-81875100D02*
X206952400Y-81875100D01*
%TO.C,D14*%
X91702400Y-103125100D02*
X92702400Y-103125100D01*
%TO.C,D3*%
X74702400Y-64875100D02*
X75702400Y-64875100D01*
%TO.C,D21*%
X91727400Y-120150100D02*
X92727400Y-120150100D01*
%TO.C,D9*%
X74702400Y-81875100D02*
X75702400Y-81875100D01*
%TO.C,D22*%
X171952400Y-71175100D02*
X172952400Y-71175100D01*
%TO.C,D28*%
X171952400Y-88175100D02*
X172952400Y-88175100D01*
%TO.C,D39*%
X256952400Y-111625100D02*
X257952400Y-111625100D01*
%TO.C,D23*%
X188952400Y-69125100D02*
X189952400Y-69125100D01*
%TO.C,D5*%
X40702400Y-75425100D02*
X41702400Y-75425100D01*
%TO.C,D19*%
X125702400Y-124375100D02*
X126702400Y-124375100D01*
%TO.C,D26*%
X239952400Y-75400100D02*
X240952400Y-75400100D01*
%TO.C,D7*%
X108702400Y-88175100D02*
X109702400Y-88175100D01*
%TO.C,D38*%
X239952400Y-109425100D02*
X240952400Y-109425100D01*
%TO.C,D20*%
X108702400Y-122175100D02*
X109702400Y-122175100D01*
%TO.C,D41*%
X171950000Y-122175000D02*
X172950000Y-122175000D01*
%TO.C,D18*%
X23702400Y-111625100D02*
X24702400Y-111625100D01*
%TO.C,D24*%
X205950000Y-64875000D02*
X206950000Y-64875000D01*
%TO.C,D13*%
X108702400Y-105175100D02*
X109702400Y-105175100D01*
%TO.C,D4*%
X57702400Y-69125100D02*
X58702400Y-69125100D01*
%TO.C,D6*%
X23727400Y-77650100D02*
X24727400Y-77650100D01*
%TO.C,D37*%
X222952400Y-103125100D02*
X223952400Y-103125100D01*
%TO.C,D25*%
X222952400Y-69125100D02*
X223952400Y-69125100D01*
%TO.C,D42*%
X188952400Y-120125100D02*
X189952400Y-120125100D01*
%TO.C,D11*%
X40702400Y-92400100D02*
X41702400Y-92400100D01*
%TO.C,D34*%
X171952400Y-105175100D02*
X172952400Y-105175100D01*
%TO.C,D15*%
X74702400Y-98875100D02*
X75702400Y-98875100D01*
%TO.C,D2*%
X91702400Y-69125100D02*
X92702400Y-69125100D01*
%TO.C,D33*%
X256952400Y-94625100D02*
X257952400Y-94625100D01*
%TO.C,D29*%
X188952400Y-86125100D02*
X189952400Y-86125100D01*
%TO.C,D36*%
X205950000Y-98875000D02*
X206950000Y-98875000D01*
%TO.C,D40*%
X154952400Y-124375100D02*
X155952400Y-124375100D01*
%TO.C,D16*%
X57702400Y-103125100D02*
X58702400Y-103125100D01*
%TO.C,D35*%
X188950000Y-103125000D02*
X189950000Y-103125000D01*
%TO.C,D8*%
X91700000Y-86125000D02*
X92700000Y-86125000D01*
%TD*%
M02*
