%TF.GenerationSoftware,KiCad,Pcbnew,9.0.1*%
%TF.CreationDate,2025-04-16T23:21:15+03:00*%
%TF.ProjectId,turfing,74757266-696e-4672-9e6b-696361645f70,rev?*%
%TF.SameCoordinates,Original*%
%TF.FileFunction,Paste,Bot*%
%TF.FilePolarity,Positive*%
%FSLAX46Y46*%
G04 Gerber Fmt 4.6, Leading zero omitted, Abs format (unit mm)*
G04 Created by KiCad (PCBNEW 9.0.1) date 2025-04-16 23:21:15*
%MOMM*%
%LPD*%
G01*
G04 APERTURE LIST*
G04 Aperture macros list*
%AMRoundRect*
0 Rectangle with rounded corners*
0 $1 Rounding radius*
0 $2 $3 $4 $5 $6 $7 $8 $9 X,Y pos of 4 corners*
0 Add a 4 corners polygon primitive as box body*
4,1,4,$2,$3,$4,$5,$6,$7,$8,$9,$2,$3,0*
0 Add four circle primitives for the rounded corners*
1,1,$1+$1,$2,$3*
1,1,$1+$1,$4,$5*
1,1,$1+$1,$6,$7*
1,1,$1+$1,$8,$9*
0 Add four rect primitives between the rounded corners*
20,1,$1+$1,$2,$3,$4,$5,0*
20,1,$1+$1,$4,$5,$6,$7,0*
20,1,$1+$1,$6,$7,$8,$9,0*
20,1,$1+$1,$8,$9,$2,$3,0*%
G04 Aperture macros list end*
%ADD10RoundRect,0.200000X0.600000X0.900000X-0.600000X0.900000X-0.600000X-0.900000X0.600000X-0.900000X0*%
%ADD11RoundRect,0.250000X-0.250000X0.250000X-0.250000X-0.250000X0.250000X-0.250000X0.250000X0.250000X0*%
%ADD12C,1.000000*%
%ADD13RoundRect,0.250000X-0.350000X-0.650000X0.350000X-0.650000X0.350000X0.650000X-0.350000X0.650000X0*%
G04 APERTURE END LIST*
D10*
%TO.C,SW16*%
X58200000Y-109950000D03*
X68800000Y-112150000D03*
%TD*%
%TO.C,SW29*%
X189450000Y-92950000D03*
X200050000Y-95150000D03*
%TD*%
D11*
%TO.C,D31*%
X223452400Y-85375100D03*
D12*
X223452400Y-87875100D03*
%TD*%
D11*
%TO.C,D1*%
X109200000Y-70400100D03*
D12*
X109200000Y-72900100D03*
%TD*%
D10*
%TO.C,SW20*%
X109200000Y-128990000D03*
X119800000Y-131190000D03*
%TD*%
D11*
%TO.C,D32*%
X240452400Y-91675100D03*
D12*
X240452400Y-94175100D03*
%TD*%
D10*
%TO.C,SW42*%
X189450000Y-126950000D03*
X200050000Y-129150000D03*
%TD*%
D11*
%TO.C,D17*%
X41202400Y-108675100D03*
D12*
X41202400Y-111175100D03*
%TD*%
D11*
%TO.C,D10*%
X58200000Y-85375000D03*
D12*
X58200000Y-87875000D03*
%TD*%
D11*
%TO.C,D12*%
X24200000Y-93875000D03*
D12*
X24200000Y-96375000D03*
%TD*%
D10*
%TO.C,SW17*%
X41200000Y-116240000D03*
X51800000Y-118440000D03*
%TD*%
%TO.C,SW5*%
X41200000Y-82240000D03*
X51800000Y-84440000D03*
%TD*%
D11*
%TO.C,D27*%
X257450000Y-76875000D03*
D12*
X257450000Y-79375000D03*
%TD*%
D10*
%TO.C,SW10*%
X58200000Y-92950000D03*
X68800000Y-95150000D03*
%TD*%
D11*
%TO.C,D30*%
X206452400Y-81125100D03*
D12*
X206452400Y-83625100D03*
%TD*%
D10*
%TO.C,SW24*%
X206450000Y-71700000D03*
X217050000Y-73900000D03*
%TD*%
%TO.C,SW4*%
X58200000Y-75950000D03*
X68800000Y-78150000D03*
%TD*%
%TO.C,SW22*%
X172450000Y-77990000D03*
X183050000Y-80190000D03*
%TD*%
%TO.C,SW36*%
X206450000Y-105700000D03*
X217050000Y-107900000D03*
%TD*%
%TO.C,SW34*%
X172450000Y-111990000D03*
X183050000Y-114190000D03*
%TD*%
D11*
%TO.C,D14*%
X92202400Y-102375100D03*
D12*
X92202400Y-104875100D03*
%TD*%
D11*
%TO.C,D3*%
X75202400Y-64125100D03*
D12*
X75202400Y-66625100D03*
%TD*%
D10*
%TO.C,SW15*%
X75200000Y-105700000D03*
X85800000Y-107900000D03*
%TD*%
%TO.C,SW40*%
X155450000Y-131200000D03*
X166050000Y-133400000D03*
%TD*%
%TO.C,SW7*%
X109200000Y-94990000D03*
X119800000Y-97190000D03*
%TD*%
D11*
%TO.C,D21*%
X92227400Y-119400100D03*
D12*
X92227400Y-121900100D03*
%TD*%
D10*
%TO.C,SW23*%
X189450000Y-75950000D03*
X200050000Y-78150000D03*
%TD*%
D11*
%TO.C,D9*%
X75202400Y-81125100D03*
D12*
X75202400Y-83625100D03*
%TD*%
D10*
%TO.C,SW32*%
X240450000Y-99240000D03*
X251050000Y-101440000D03*
%TD*%
D11*
%TO.C,D22*%
X172452400Y-70425100D03*
D12*
X172452400Y-72925100D03*
%TD*%
D11*
%TO.C,D28*%
X172452400Y-87425100D03*
D12*
X172452400Y-89925100D03*
%TD*%
D11*
%TO.C,D39*%
X257452400Y-110875100D03*
D12*
X257452400Y-113375100D03*
%TD*%
D10*
%TO.C,SW3*%
X75200000Y-71700000D03*
X85800000Y-73900000D03*
%TD*%
D11*
%TO.C,D23*%
X189452400Y-68375100D03*
D12*
X189452400Y-70875100D03*
%TD*%
D10*
%TO.C,SW21*%
X92200000Y-126950000D03*
X102800000Y-129150000D03*
%TD*%
%TO.C,SW38*%
X240450000Y-116240000D03*
X251050000Y-118440000D03*
%TD*%
D11*
%TO.C,D5*%
X41202400Y-74675100D03*
D12*
X41202400Y-77175100D03*
%TD*%
D10*
%TO.C,SW25*%
X223450000Y-75950000D03*
X234050000Y-78150000D03*
%TD*%
%TO.C,SW8*%
X92200000Y-92950000D03*
X102800000Y-95150000D03*
%TD*%
D11*
%TO.C,D19*%
X126202400Y-123625100D03*
D12*
X126202400Y-126125100D03*
%TD*%
D10*
%TO.C,SW19*%
X126200000Y-131200000D03*
X136800000Y-133400000D03*
%TD*%
D11*
%TO.C,D26*%
X240452400Y-74650100D03*
D12*
X240452400Y-77150100D03*
%TD*%
D10*
%TO.C,SW30*%
X206450000Y-88700000D03*
X217050000Y-90900000D03*
%TD*%
D11*
%TO.C,D7*%
X109202400Y-87425100D03*
D12*
X109202400Y-89925100D03*
%TD*%
D10*
%TO.C,SW12*%
X24200000Y-101450000D03*
X34800000Y-103650000D03*
%TD*%
%TO.C,SW11*%
X41200000Y-99240000D03*
X51800000Y-101440000D03*
%TD*%
D13*
%TO.C,RS_L1*%
X79525000Y-113240000D03*
X84325000Y-113240000D03*
%TD*%
D11*
%TO.C,D38*%
X240452400Y-108675100D03*
D12*
X240452400Y-111175100D03*
%TD*%
D10*
%TO.C,SW27*%
X257450000Y-84450000D03*
X268050000Y-86650000D03*
%TD*%
D11*
%TO.C,D20*%
X109202400Y-121425100D03*
D12*
X109202400Y-123925100D03*
%TD*%
D11*
%TO.C,D41*%
X172450000Y-121425000D03*
D12*
X172450000Y-123925000D03*
%TD*%
D10*
%TO.C,SW13*%
X109200000Y-111990000D03*
X119800000Y-114190000D03*
%TD*%
D11*
%TO.C,D18*%
X24202400Y-110875100D03*
D12*
X24202400Y-113375100D03*
%TD*%
D11*
%TO.C,D24*%
X206450000Y-64125000D03*
D12*
X206450000Y-66625000D03*
%TD*%
D11*
%TO.C,D13*%
X109202400Y-104425100D03*
D12*
X109202400Y-106925100D03*
%TD*%
D11*
%TO.C,D4*%
X58202400Y-68375100D03*
D12*
X58202400Y-70875100D03*
%TD*%
D10*
%TO.C,SW35*%
X189450000Y-109950000D03*
X200050000Y-112150000D03*
%TD*%
%TO.C,SW31*%
X223450000Y-92950000D03*
X234050000Y-95150000D03*
%TD*%
%TO.C,SW2*%
X92200000Y-75950000D03*
X102800000Y-78150000D03*
%TD*%
D11*
%TO.C,D6*%
X24227400Y-76900100D03*
D12*
X24227400Y-79400100D03*
%TD*%
D10*
%TO.C,SW9*%
X75200000Y-88700000D03*
X85800000Y-90900000D03*
%TD*%
%TO.C,SW39*%
X257450000Y-118450000D03*
X268050000Y-120650000D03*
%TD*%
%TO.C,SW18*%
X24200000Y-118450000D03*
X34800000Y-120650000D03*
%TD*%
%TO.C,SW33*%
X257450000Y-101450000D03*
X268050000Y-103650000D03*
%TD*%
D11*
%TO.C,D37*%
X223452400Y-102375100D03*
D12*
X223452400Y-104875100D03*
%TD*%
D11*
%TO.C,D25*%
X223452400Y-68375100D03*
D12*
X223452400Y-70875100D03*
%TD*%
D10*
%TO.C,SW14*%
X92200000Y-109950000D03*
X102800000Y-112150000D03*
%TD*%
D11*
%TO.C,D42*%
X189452400Y-119375100D03*
D12*
X189452400Y-121875100D03*
%TD*%
D11*
%TO.C,D11*%
X41202400Y-91650100D03*
D12*
X41202400Y-94150100D03*
%TD*%
D11*
%TO.C,D34*%
X172452400Y-104425100D03*
D12*
X172452400Y-106925100D03*
%TD*%
D10*
%TO.C,SW6*%
X24200000Y-84450000D03*
X34800000Y-86650000D03*
%TD*%
D11*
%TO.C,D15*%
X75202400Y-98125100D03*
D12*
X75202400Y-100625100D03*
%TD*%
D11*
%TO.C,D2*%
X92202400Y-68375100D03*
D12*
X92202400Y-70875100D03*
%TD*%
D11*
%TO.C,D33*%
X257452400Y-93875100D03*
D12*
X257452400Y-96375100D03*
%TD*%
D11*
%TO.C,D29*%
X189452400Y-85375100D03*
D12*
X189452400Y-87875100D03*
%TD*%
D10*
%TO.C,SW1*%
X109200000Y-77990000D03*
X119800000Y-80190000D03*
%TD*%
D11*
%TO.C,D36*%
X206450000Y-98125000D03*
D12*
X206450000Y-100625000D03*
%TD*%
D11*
%TO.C,D40*%
X155452400Y-123625100D03*
D12*
X155452400Y-126125100D03*
%TD*%
D11*
%TO.C,D16*%
X58202400Y-102375100D03*
D12*
X58202400Y-104875100D03*
%TD*%
D10*
%TO.C,SW41*%
X172450000Y-128990000D03*
X183050000Y-131190000D03*
%TD*%
D11*
%TO.C,D35*%
X189450000Y-102375000D03*
D12*
X189450000Y-104875000D03*
%TD*%
D10*
%TO.C,SW28*%
X172450000Y-94990000D03*
X183050000Y-97190000D03*
%TD*%
%TO.C,SW26*%
X240450000Y-82240000D03*
X251050000Y-84440000D03*
%TD*%
%TO.C,SW37*%
X223450000Y-109950000D03*
X234050000Y-112150000D03*
%TD*%
D11*
%TO.C,D8*%
X92200000Y-85375000D03*
D12*
X92200000Y-87875000D03*
%TD*%
D13*
%TO.C,RS_R1*%
X210775000Y-113240000D03*
X215575000Y-113240000D03*
%TD*%
M02*
